<svg xmlns="http://www.w3.org/2000/svg" viewBox="0 0 108 108" width="100%" height="100%">
  <defs>
    <!-- Brand Cobalt Linear Gradient (matching CobaltGradStart and CobaltGradEnd) -->
    <linearGradient id="cobaltGradient" x1="0%" y1="0%" x2="100%" y2="100%">
      <stop offset="0%" stop-color="#1A3FDB" />
      <stop offset="100%" stop-color="#4F46E5" />
    </linearGradient>
  </defs>
  
  <!-- Shield Shape -->
  <path fill="url(#cobaltGradient)" d="M 54, 20 C 54, 20  33, 25  27, 32 L 27, 58 C 27, 73  40, 83  54, 90 C 68, 83  81, 73  81, 58 L 81, 32 C 75, 25  54, 20  54, 20 Z" />
  
  <!-- V Lettermark Layer -->
  <path fill="#FFFFFF" d="M 34, 35 L 42, 35 L 54, 62 L 66, 35 L 74, 35 L 57, 70 C 57, 70  55.5, 73  54, 73 C 52.5, 73  51, 70  51, 70 Z" />
  
  <!-- Gold Checkmark Accent -->
  <path stroke="#F59E0B" stroke-width="3.5" stroke-linecap="round" stroke-linejoin="round" fill="none" d="M 64, 40 L 68, 45 L 76, 36" />
</svg>
